<svg width="41" height="40" viewBox="0 0 41 40" fill="none" xmlns="http://www.w3.org/2000/svg">
<path d="M38.1666 14.875C38.1666 11.009 35.0326 7.875 31.1666 7.875C29.9996 7.875 28.9016 8.165 27.9346 8.669C25.8526 5.842 22.5096 4 18.7296 4C13.5976 4 9.25463 7.38 7.80663 12.036C5.14863 12.653 3.16663 15.03 3.16663 17.875C3.16663 20.854 5.34063 23.32 8.18763 23.788C8.40363 27.737 11.6646 30.875 15.6666 30.875C17.8426 30.875 19.7966 29.942 21.1666 28.462C22.5366 29.942 24.4896 30.875 26.6666 30.875C30.8096 30.875 34.1666 27.518 34.1666 23.375C34.1666 22.665 34.0616 21.981 33.8776 21.33C36.3966 20.271 38.1666 17.78 38.1666 14.875Z" fill="#85C8F8"/>
<path d="M7.16663 36.875C8.82348 36.875 10.1666 35.5319 10.1666 33.875C10.1666 32.2181 8.82348 30.875 7.16663 30.875C5.50977 30.875 4.16663 32.2181 4.16663 33.875C4.16663 35.5319 5.50977 36.875 7.16663 36.875Z" fill="#85C8F8"/>
</svg>
